<svg xmlns="http://www.w3.org/2000/svg" width="1200" height="700" viewBox="0 0 1200 700"><style>.bg{fill:#f3f5f4}.side{fill:#173642}.nav{font:15px sans-serif;fill:#dce8e8}.brand{font:bold 24px sans-serif;fill:white}.h1{font:bold 28px sans-serif;fill:#173642}.sub{font:14px sans-serif;fill:#64737a}.card{fill:white;stroke:#dce3e4}.small{font:11px sans-serif;fill:#6c7d84}.title{font:bold 18px sans-serif;fill:#203942}.muted{font:12px sans-serif;fill:#728087}.metric{font:bold 30px sans-serif;fill:#1a5963}</style><rect width="1200" height="700" class="bg"/><rect width="270" height="700" class="side"/><text x="42" y="70" class="brand">ZH 知华科技</text><text x="42" y="105" class="nav">HELPDESK ENTERPRISE</text><text x="48" y="190" class="nav">自助服务门户</text><text x="48" y="230" class="nav">服务目录</text><text x="48" y="270" class="nav">工单中心</text><text x="48" y="310" class="nav">队列与分派</text><text x="48" y="350" class="nav">SLA管理</text><text x="48" y="390" class="nav">重大工单升级</text><text x="320" y="70" class="h1">企业服务台与工单管理系统 · 运营总览</text><text x="320" y="102" class="sub">统一受理企业内外部请求，以服务目录、SLA和自动升级保障服务兑现</text><g transform="translate(320,135)"><rect width="780" height="80" rx="12" class="card"/><text x="24" y="30" class="small">企业业务控制中心</text><text x="24" y="62" class="metric">模块 9 · 状态流转 · 风险 · SLA · 审计</text></g><g transform="translate(320,250)"><rect width="240" height="120" rx="12" class="card"/><text x="20" y="38" class="small">PORTAL</text><text x="20" y="70" class="title">自助服务门户</text><text x="20" y="96" class="muted">提供提单、进度查询、补充材料和服</text></g><g transform="translate(590,250)"><rect width="240" height="120" rx="12" class="card"/><text x="20" y="38" class="small">CATALOG</text><text x="20" y="70" class="title">服务目录</text><text x="20" y="96" class="muted">定义服务项、表单、承诺时限、责任</text></g><g transform="translate(860,250)"><rect width="240" height="120" rx="12" class="card"/><text x="20" y="38" class="small">TICKET</text><text x="20" y="70" class="title">工单中心</text><text x="20" y="96" class="muted">统一登记事件、请求、投诉和咨询工</text></g><g transform="translate(320,400)"><rect width="240" height="120" rx="12" class="card"/><text x="20" y="38" class="small">ROUTING</text><text x="20" y="70" class="title">队列与分派</text><text x="20" y="96" class="muted">按技能、组织、值班、负载和优先级</text></g><g transform="translate(590,400)"><rect width="240" height="120" rx="12" class="card"/><text x="20" y="38" class="small">SLA</text><text x="20" y="70" class="title">SLA管理</text><text x="20" y="96" class="muted">配置响应与解决目标、暂停规则、预</text></g><g transform="translate(860,400)"><rect width="240" height="120" rx="12" class="card"/><text x="20" y="38" class="small">ESCALATION</text><text x="20" y="70" class="title">重大工单升级</text><text x="20" y="96" class="muted">触发分级响应、管理层通知、会商和</text></g><text x="320" y="655" class="sub">界面示意 · 上海如静知华信息科技有限公司 · https://www.zhuatech.cn/</text></svg>